PathFileType	4	(X/Y/Z)	/Users/itak/Documents/Research/Walk-IL/dataset/trc/00517_00183.trc
DataRate	CameraRate	NumFrames	NumMarkers	Units	OrigDataRate	OrigDataStartFrame	OrigNumFrames
100.000000	100.000000	4	54	mm	100.000000	196	392
Frame#	Time	RPSI			LPSI			L3			STRN			T10			C7			CLAV			RBAK			LBAK			LSHO			LUPA			LAEL			LAOL			LWTS			LWPS			LFRA			LIFD			LHPS			LHTS			RSHO			RUPA			RAEL			RAOL			RWTS			RWPS			RFRA			RIFD			RHTS			RHPS			RBHD			LFHD			RFHD			LBHD			RHIP			RASI			LASI			LKNE			LTHI			LANK			LTIP			LTOE			LMT1			LMT5			LHEE			RKNE			RTHI			RANK			RTIP			RTOE			RMT1			RMT5			RHEE			LHIP			*53			
		X1	Y1	Z1	X2	Y2	Z2	X3	Y3	Z3	X4	Y4	Z4	X5	Y5	Z5	X6	Y6	Z6	X7	Y7	Z7	X8	Y8	Z8	X9	Y9	Z9	X10	Y10	Z10	X11	Y11	Z11	X12	Y12	Z12	X13	Y13	Z13	X14	Y14	Z14	X15	Y15	Z15	X16	Y16	Z16	X17	Y17	Z17	X18	Y18	Z18	X19	Y19	Z19	X20	Y20	Z20	X21	Y21	Z21	X22	Y22	Z22	X23	Y23	Z23	X24	Y24	Z24	X25	Y25	Z25	X26	Y26	Z26	X27	Y27	Z27	X28	Y28	Z28	X29	Y29	Z29	X30	Y30	Z30	X31	Y31	Z31	X32	Y32	Z32	X33	Y33	Z33	X34	Y34	Z34	X35	Y35	Z35	X36	Y36	Z36	X37	Y37	Z37	X38	Y38	Z38	X39	Y39	Z39	X40	Y40	Z40	X41	Y41	Z41	X42	Y42	Z42	X43	Y43	Z43	X44	Y44	Z44	X45	Y45	Z45	X46	Y46	Z46	X47	Y47	Z47	X48	Y48	Z48	X49	Y49	Z49	X50	Y50	Z50	X51	Y51	Z51	X52	Y52	Z52	X53	Y53	Z53	X54	Y54	Z54	

197	1.96	725.5267944335938	939.0626220703125	56.72551345825195	801.5388793945312	934.20751953125	-41.40863037109375	760.6915893554688	1010.014831542969	3.394154787063599	937.6909790039062	1178.953247070312	125.6904067993164	747.3790893554688	1114.438354492188	1.878687143325806	778.7032470703125	1344.484375	25.3477783203125	907.1921997070312	1273.268310546875	105.662956237793	691.97607421875	1222.372802734375	73.29631042480469	802.7606811523438	1288.31396484375	-60.84604263305664	919.8091430664062	1337.50341796875	-74.95172882080078	940.5420532226562	1212.917114257812	-134.0977630615234	966.256591796875	1004.720031738281	-158.640625	872.0174560546875	992.587890625	-127.4912185668945	1034.356689453125	817.3135986328125	-87.48865509033203	985.4959106445312	783.4683227539062	-160.9402923583984	985.903076171875	920.0368041992188	-154.1985015869141	1040.621215820312	660.1704711914062	-84.45386505126953	1007.219665527344	728.7889404296875	-146.8028259277344	1054.15185546875	741.1553955078125	-103.0621109008789	742.9825439453125	1342.828491210938	177.777099609375	698.1649780273438	1276.45361328125	217.5928192138672	688.1962890625	1010.657104492188	276.056884765625	666.1802368164062	986.7858276367188	218.0799407958984	821.9354858398438	841.8724975585938	330.6483459472656	740.5572509765625	800.285400390625	335.1642150878906	693.264404296875	957.708984375	289.8957214355469	853.527099609375	691.50341796875	368.9344787597656	837.7965087890625	760.0819702148438	378.0417175292969	773.2032470703125	739.8756103515625	360.4835510253906	765.1239624023438	1496.38037109375	116.4245910644531	950.4666748046875	1566.798828125	89.57778930664062	869.533447265625	1554.299438476562	187.1763916015625	856.4395751953125	1508.464965820312	-14.54268264770508	731.1935424804688	839.7799072265625	221.2073211669922	848.626953125	892.0223388671875	233.2381591796875	994.0748291015625	912.0048217773438	40.37089538574219	1115.233032226562	506.68798828125	90.03917694091797	1071.324584960938	644.5619506835938	26.6425952911377	1113.575927734375	88.07534790039062	-42.18828964233398	1127.290771484375	368.8152465820312	51.64850997924805	1197.574951171875	57.78538513183594	134.1256866455078	1124.890380859375	55.83334350585938	104.5165634155273	1193.143432617188	69.70167541503906	26.50767135620117	1038.582641601562	80.72233581542969	-34.35406494140625	792.9818725585938	455.0910034179688	150.410400390625	765.8993530273438	707.9491577148438	225.830078125	713.4566650390625	49.6385498046875	16.8969898223877	802.2196044921875	312.9601135253906	107.5629577636719	910.2169189453125	32.04925155639648	77.69361877441406	870.1488037109375	35.81313705444336	12.12790870666504	804.8480224609375	39.03308486938477	82.43764495849609	691.560791015625	45.11883926391602	-49.82352066040039	973.3201293945312	870.9856567382812	-70.41355133056641	nan	nan	nan	
198	1.97	733.1751708984375	938.2533569335938	58.91824340820312	811.02783203125	933.376708984375	-37.76099014282227	769.1023559570312	1009.162353515625	6.085706233978271	944.1002807617188	1178.117797851562	130.53564453125	755.4044189453125	1113.605346679688	4.14820671081543	786.6424560546875	1343.591796875	28.08533668518066	913.8859252929688	1272.3623046875	110.0187530517578	699.05859375	1221.605224609375	74.80877685546875	811.775634765625	1287.351196289062	-57.79116821289062	929.00439453125	1336.457153320312	-70.41014862060547	950.4547119140625	1211.859619140625	-129.2255096435547	976.2072143554688	1003.669616699219	-153.5250396728516	881.6082763671875	991.6380615234375	-123.4433517456055	1043.15576171875	815.9915771484375	-81.78926086425781	995.0147094726562	782.254638671875	-155.7884063720703	995.6409301757812	918.9176635742188	-148.9662170410156	1048.828247070312	658.7994995117188	-78.86997985839844	1016.686645507812	727.7720336914062	-141.7803649902344	1062.873657226562	739.7840576171875	-97.18296813964844	748.86962890625	1342.042602539062	180.0216979980469	703.8480834960938	1275.642333984375	219.5406494140625	695.3154296875	1009.92724609375	279.208984375	673.4923706054688	985.54638671875	221.3841857910156	830.9371337890625	843.59521484375	335.3762817382812	750.3511962890625	800.7621459960938	340.081298828125	700.7821044921875	957.2255859375	293.4935607910156	864.5574340820312	694.109130859375	375.3147888183594	847.7946166992188	762.54638671875	383.6424255371094	783.5867309570312	741.2958374023438	366.288818359375	772.4381103515625	1495.431274414062	119.2308349609375	958.08056640625	1565.766723632812	93.96337890625	876.269775390625	1553.485229492188	190.8961334228516	865.110107421875	1507.416870117188	-11.02071571350098	735.9628295898438	839.179931640625	223.5026245117188	853.1666870117188	891.2413940429688	237.2236175537109	1002.470153808594	911.44677734375	47.13902282714844	1124.036499023438	506.4443359375	96.70382690429688	1080.257446289062	643.9242553710938	32.87751388549805	1142.232666015625	83.39485168457031	-21.02274703979492	1142.540283203125	367.4104614257812	63.60171890258789	1215.6298828125	60.32686996459961	160.7655487060547	1145.1201171875	55.81782531738281	126.8558883666992	1217.788208007812	68.89476776123047	52.89314270019531	1067.086303710938	74.68666839599609	-17.56294059753418	796.128662109375	454.5678100585938	152.4794616699219	769.9424438476562	707.2705688476562	228.3405456542969	713.6903686523438	49.99227142333984	16.75436210632324	804.3717041015625	312.505126953125	109.0283126831055	910.2291870117188	31.9565544128418	77.92008972167969	870.3131713867188	35.88561248779297	12.25994491577148	804.9745483398438	39.09978485107422	82.47075653076172	691.8129272460938	46.08223724365234	-49.98877716064453	983.2490844726562	870.3441162109375	-63.96791076660156	nan	nan	nan	
199	1.98	740.87548828125	937.4196166992188	61.16062545776367	820.576416015625	932.5222778320312	-33.98493957519531	777.5439453125	1008.275329589844	8.881560325622559	950.5347900390625	1177.263671875	135.3820037841797	763.4682006835938	1112.748901367188	6.476434230804443	794.6294555664062	1342.670288085938	30.82528495788574	920.6043701171875	1271.428588867188	114.3643569946289	706.2255859375	1220.82763671875	76.35839080810547	820.81982421875	1286.358520507812	-54.70744323730469	938.2020263671875	1335.372924804688	-65.85356903076172	960.3623046875	1210.761962890625	-124.3250274658203	986.1591186523438	1002.583312988281	-148.3656311035156	891.2156372070312	990.6539916992188	-119.3730316162109	1051.994750976562	814.6755981445312	-76.0211181640625	1004.602905273438	780.992919921875	-150.5628051757812	1005.398864746094	917.7783203125	-143.6890716552734	1057.102416992188	657.4278564453125	-73.15078735351562	1026.198364257812	726.713134765625	-136.6300659179688	1071.656494140625	738.413330078125	-91.20010375976562	754.8397827148438	1341.249267578125	182.2758941650391	709.6358642578125	1274.819091796875	221.5137481689453	702.4441528320312	1009.201416015625	282.2565307617188	680.8191528320312	984.3545532226562	224.5702667236328	839.6934204101562	845.1192626953125	339.9427795410156	759.8857421875	801.078369140625	344.690185546875	708.2557983398438	956.7535400390625	296.9579162597656	875.163818359375	696.4807739257812	381.3587341308594	857.44384765625	764.7717895507812	388.9913330078125	793.6304931640625	742.5489501953125	371.7608032226562	779.7703857421875	1494.406494140625	122.0256729125977	965.6747436523438	1564.725708007812	98.38531494140625	882.9496459960938	1552.62890625	194.5908966064453	873.8068237304688	1506.33056640625	-7.473971843719482	740.7259521484375	838.5704956054688	225.8018646240234	857.648681640625	890.440673828125	241.2139434814453	1010.881896972656	910.9005126953125	54.05764389038086	1132.725952148438	505.9075622558594	102.9787750244141	1089.199951171875	643.1305541992188	38.88668823242188	1169.807983398438	79.5054931640625	0.6774553656578064	1157.322631835938	366.1422119140625	75.52475738525391	1231.844116210938	62.89959716796875	187.2196044921875	1163.856201171875	56.14893341064453	149.1117706298828	1240.913208007812	68.41825866699219	79.56223297119141	1094.685546875	69.66461944580078	-0.2451212555170059	799.325439453125	454.0615844726562	154.5944366455078	773.9459228515625	706.6058349609375	230.8886260986328	713.9579467773438	50.40381240844727	16.59491157531738	806.5518188476562	312.0758361816406	110.5095901489258	910.2484130859375	31.88684844970703	78.15176391601562	870.4903564453125	35.99247741699219	12.39578723907471	805.1156616210938	39.19671249389648	82.50276947021484	692.1085205078125	47.14397048950195	-50.17572402954102	993.2506103515625	869.7037963867188	-57.31394195556641	nan	nan	nan	
200	1.99	748.6629028320312	936.5733642578125	63.44161987304688	830.2097778320312	931.6549682617188	-30.09157371520996	786.0462036132812	1007.351013183594	11.79397583007812	957.012939453125	1176.39404296875	140.2305145263672	771.58056640625	1111.863525390625	8.86445426940918	802.6671752929688	1341.719116210938	33.57342147827148	927.3672485351562	1270.46875	118.6995010375977	713.4873046875	1220.034912109375	77.96054840087891	829.8982543945312	1285.33447265625	-51.59371566772461	947.4066162109375	1334.249267578125	-61.28541946411133	970.257568359375	1209.623657226562	-119.4034194946289	996.1032104492188	1001.453369140625	-143.1619720458984	900.8343505859375	989.6270141601562	-115.2718811035156	1060.8779296875	813.3683471679688	-70.18513488769531	1014.256652832031	779.68408203125	-145.2612762451172	1015.17138671875	916.6138916015625	-138.3622436523438	1065.476928710938	656.063720703125	-67.30589294433594	1035.742309570312	725.5950317382812	-131.3232116699219	1080.51025390625	737.0487670898438	-85.12544250488281	760.9156494140625	1340.449340820312	184.5512542724609	715.537841796875	1273.97802734375	223.5233459472656	709.5682983398438	1008.476318359375	285.2215881347656	688.1387329101562	983.2113037109375	227.6622619628906	848.1876831054688	846.4138793945312	344.3450317382812	769.110595703125	801.2432250976562	349.0347595214844	715.66845703125	956.2797241210938	300.3040466308594	885.3505859375	698.5852661132812	387.0697021484375	866.7455444335938	766.7279052734375	394.0894165039062	803.3248291015625	743.5944213867188	376.9019775390625	787.1262817382812	1493.31591796875	124.803466796875	973.2523193359375	1563.675170898438	102.8369598388672	889.5660400390625	1551.726928710938	198.2464599609375	882.5306396484375	1505.209350585938	-3.913228034973145	745.4728393554688	837.950927734375	228.0908355712891	862.094482421875	889.6272583007812	245.2441558837891	1019.291320800781	910.3692626953125	61.14697647094727	1141.3447265625	505.1416625976562	108.9593734741211	1098.19384765625	642.2418823242188	44.76317596435547	1196.05517578125	76.41068267822266	22.7228946685791	1171.575439453125	365.0672912597656	87.35126495361328	1246.452880859375	65.41105651855469	213.1755981445312	1181.233764648438	56.76670074462891	171.0935363769531	1262.487426757812	68.22657012939453	106.1860656738281	1121.141723632812	65.70075225830078	17.54819107055664	802.5989990234375	453.5705871582031	156.7553558349609	777.91943359375	705.9562377929688	233.4672546386719	714.266357421875	50.88948822021484	16.41341400146484	808.7804565429688	311.6729736328125	111.9922866821289	910.2769775390625	31.84385108947754	78.38332366943359	870.6948852539062	36.15003967285156	12.51863861083984	805.2774047851562	39.33406829833984	82.52787780761719	692.4590454101562	48.30915832519531	-50.38903045654297	1003.330627441406	869.0733032226562	-50.44747543334961	nan	nan	nan	
